<svg id="Слой_1" data-name="Слой 1" xmlns="http://www.w3.org/2000/svg" xmlns:xlink="http://www.w3.org/1999/xlink" viewBox="0 0 801.06 440"><defs><style>.cls-1{fill:url(#Безымянный_градиент_27);}.cls-2{fill:url(#Безымянный_градиент_35);}.cls-3{fill:url(#Безымянный_градиент_35-2);}.cls-4{font-size:96px;fill:#fff;font-family:YagodaRegular, Yagoda;}.cls-5{fill:url(#Безымянный_градиент_46);}.cls-6{fill:url(#Безымянный_градиент_46-2);}</style><radialGradient id="Безымянный_градиент_27" cx="238.13" cy="230.35" fx="315.4699777622461" fy="76.52999555379844" r="216.13" gradientTransform="translate(4.87 -13.19) scale(1 1.01)" gradientUnits="userSpaceOnUse"><stop offset="0.08" stop-color="#bcb6d8"/><stop offset="0.09" stop-color="#b8b3d7"/><stop offset="0.17" stop-color="#8c8fcb"/><stop offset="0.26" stop-color="#6973c1"/><stop offset="0.33" stop-color="#505fba"/><stop offset="0.4" stop-color="#4052b5"/><stop offset="0.46" stop-color="#3b4eb4"/><stop offset="0.5" stop-color="#3647ad"/><stop offset="0.7" stop-color="#242d90"/><stop offset="0.87" stop-color="#181e7f"/><stop offset="1" stop-color="#141879"/></radialGradient><linearGradient id="Безымянный_градиент_35" x1="476.89" y1="26.78" x2="602.8" y2="152.69" gradientUnits="userSpaceOnUse"><stop offset="0.27" stop-color="#90c05b"/><stop offset="0.27" stop-color="#90c05b"/><stop offset="0.55" stop-color="#73a446"/><stop offset="0.8" stop-color="#629339"/><stop offset="0.98" stop-color="#5c8d34"/></linearGradient><linearGradient id="Безымянный_градиент_35-2" x1="459.53" y1="190.36" x2="673.61" y2="404.44" xlink:href="#Безымянный_градиент_35"/><linearGradient id="Безымянный_градиент_46" x1="500.71" y1="137.5" x2="481.73" y2="118.52" gradientUnits="userSpaceOnUse"><stop offset="0.03" stop-color="#9cc264"/><stop offset="0.1" stop-color="#96bb5f"/><stop offset="0.44" stop-color="#7ea24e"/><stop offset="0.75" stop-color="#709343"/><stop offset="1" stop-color="#6b8e3f"/></linearGradient><linearGradient id="Безымянный_градиент_46-2" x1="427.14" y1="646.54" x2="408.16" y2="627.56" gradientTransform="translate(475.9 -485.38) rotate(30.84)" xlink:href="#Безымянный_градиент_46"/></defs><circle class="cls-1" cx="243" cy="220" r="220"/><path class="cls-2" d="M571.5,184c37-65.07,47.24-115.41,92.55-143.63,2.06-1.28,5.79-3.15,5.69-4.06-.88-7.61-94.06-32.13-182.2,10.64C454.85,62.8,431,77.39,412.39,91.28a219.1,219.1,0,0,1,44.53,99.3C493.5,186.78,523.05,179.11,571.5,184Z" transform="translate(4.87 -10.35)"/><path class="cls-3" d="M652.1,202.63C549.24,174.22,511,188,457.78,193.52v0a220.22,220.22,0,0,1-45.38,175.38c6.1,6.47,35.75,29.27,139.61,11,120-21.17,168.58-77,237-65.64,2.39.4,6.43,1.47,7,.72C800.32,308.67,746.53,228.72,652.1,202.63Z" transform="translate(4.87 -10.35)"/><text class="cls-4" transform="translate(2.11 258.67)">Y</text><text class="cls-4" transform="translate(61.91 258.47)">A</text><text class="cls-4" transform="translate(149.03 258.67)">G</text><text class="cls-4" transform="translate(308.69 258.67)">D</text><text class="cls-4" transform="translate(229.87 258.47)">O</text><text class="cls-4" transform="translate(382.21 258.67)">A</text><path class="cls-5" d="M459.16,143.35c-4.25,3.41-8.22,6.63-12,9.71a217,217,0,0,1,7,22.87c40.52-43.78,69.17-67.71,85.59-77.95a13.24,13.24,0,0,0,3.2-2.92C543.91,92.1,505.28,106.32,459.16,143.35Z" transform="translate(4.87 -10.35)"/><path class="cls-6" d="M472.59,272.43c-5.4.76-10.46,1.49-15.25,2.21a219.8,219.8,0,0,1-5.69,23.24c57.23-16.83,94.09-22.69,113.44-23.06a13.47,13.47,0,0,0,4.25-.87C571.63,271.87,531.16,264.28,472.59,272.43Z" transform="translate(4.87 -10.35)"/></svg>